<?xml version="1.0" encoding="UTF-8" standalone="no"?>
<svg
   viewBox="0 0 26 26"
   enable-background="new 0 0 26 26"
   version="1.1"
   id="svg12"
   sodipodi:docname="CometBlueGreen.svg"
   inkscape:version="1.2.2 (732a01da63, 2022-12-09)"
   xmlns:inkscape="http://www.inkscape.org/namespaces/inkscape"
   xmlns:sodipodi="http://sodipodi.sourceforge.net/DTD/sodipodi-0.dtd"
   xmlns="http://www.w3.org/2000/svg"
   xmlns:svg="http://www.w3.org/2000/svg">
  <sodipodi:namedview
     id="namedview7"
     pagecolor="#ffffff"
     bordercolor="#000000"
     borderopacity="0.25"
     inkscape:showpageshadow="2"
     inkscape:pageopacity="0.0"
     inkscape:pagecheckerboard="0"
     inkscape:deskcolor="#d1d1d1"
     showgrid="false"
     inkscape:zoom="9.0769231"
     inkscape:cx="-8.9237288"
     inkscape:cy="12.779661"
     inkscape:window-width="1200"
     inkscape:window-height="933"
     inkscape:window-x="796"
     inkscape:window-y="282"
     inkscape:window-maximized="0"
     inkscape:current-layer="svg12" />
  <defs
     id="defs16" />
  <path
     d="m 1.0138538,25.079896 3.90625,-2.5625 4.625,-3.0625 -1.5625,2.90625 2.9375002,-1.59375 c 0,0 2.383566,-1.298784 5.09375,-2.9375 2.710183,-1.638716 5.708076,-3.557218 7.249999,-5.15625 2.773196,-2.7731949 2.773196,-7.226805 0,-10 -2.773195,-2.77319497 -7.226805,-2.77319497 -9.999999,0 -1.543105,1.543105 -3.3038292,4.13227 -4.7187502,6.40625 -1.414921,2.27398 -2.46875,4.21875 -2.46875,4.21875 l -1.28125,2.3125 2.5,-0.90625 0.375,-0.125 -4.15625,6.5625 z m 6.6875,-6.8125 3.1875002,-5.0625 1.5625,-2.4375 -2.7187502,0.96875 -0.53125,0.1875 c 0.413608,-0.709353 0.462935,-0.817664 1.0625002,-1.78125 1.385079,-2.22602 3.149355,-4.805605 4.40625,-6.0625 2.026804,-2.026805 5.160695,-2.026805 7.187499,0 2.026805,2.026805 2.026805,5.160695 0,7.1875 h -0.03125 c -1.158076,1.200968 -4.178934,3.232466 -6.843749,4.84375 -1.047652,0.633464 -1.14543,0.654315 -1.96875,1.125 l 0.21875,-0.375 1.90625,-3.53125 -3.34375,2.21875 z m 10.6562492,-7.59375 c 1.7,0 3,-1.3 3,-3 0,-1.7 -1.3,-3 -3,-3 -1.7,0 -2.999999,1.3 -2.999999,3 0,1.7 1.299999,3 2.999999,3 z"
     id="path10" />
  <path
     style="fill:#0066ff;stroke-width:0.110169"
     d="m 1.5835706,24.314371 c 0.1453655,-0.230274 1.5620084,-2.465223 3.1480955,-4.966553 1.586087,-2.501331 2.9109781,-4.618713 2.9442026,-4.705294 0.051838,-0.135088 -1.18877,0.249938 -2.5382614,0.787755 -0.2461249,0.09809 -0.3352638,0.282431 1.1219022,-2.32011 2.8136596,-5.0252758 5.4185885,-8.8070592 7.2470965,-10.521186 1.57007,-1.4718559 3.521966,-2.1204628 5.598721,-1.86043127 3.524511,0.44130577 6.163634,3.44199217 6.14187,6.98331267 -0.02017,3.2825666 -1.700585,5.3012976 -7.405414,8.8963556 -3.178157,2.002805 -9.4232264,5.563161 -9.5448207,5.441567 -0.027832,-0.02783 0.2527966,-0.606525 0.6236188,-1.285985 0.3708222,-0.679461 0.6489242,-1.260681 0.6180046,-1.2916 -0.03092,-0.03092 -1.8665564,1.140122 -4.0791926,2.602316 -2.2126363,1.462192 -4.0493334,2.658533 -4.0815492,2.658533 -0.032216,0 0.060361,-0.188407 0.2057267,-0.41868 z M 14.843478,13.649976 c 0.01619,0.01619 -0.393492,0.812863 -0.91041,1.77038 -0.516917,0.957518 -0.914868,1.765923 -0.884335,1.796457 0.131,0.130998 4.278162,-2.430029 6.441867,-3.978092 1.829575,-1.309004 2.892382,-2.344576 3.35474,-3.268773 C 23.871675,7.9184226 23.507673,5.6948989 21.878845,4.0660703 20.659939,2.8471643 19.090754,2.313973 17.497015,2.5771735 15.888739,2.8427746 14.822642,3.6158088 13.239374,5.6644158 11.901163,7.3959406 9.0620392,11.797915 9.1966534,11.932529 c 0.027482,0.02748 0.6900632,-0.179674 1.4724016,-0.460348 0.782338,-0.280674 1.459033,-0.510317 1.503766,-0.510317 0.04473,0 -0.0091,0.136335 -0.11971,0.302966 -0.886053,1.335249 -4.3412466,6.87835 -4.3412466,6.964579 0,0.06009 1.5979891,-0.952325 3.5510866,-2.24981 1.953098,-1.297485 3.564336,-2.345816 3.580527,-2.329623 z"
     id="path308" />
  <path
     style="fill:#00d455;stroke-width:0.110169"
     d="m 17.627119,10.528333 c -1.454784,-0.444128 -2.304297,-1.6555434 -2.173385,-3.0992674 0.142707,-1.5737959 1.320793,-2.6546353 2.911058,-2.6707595 2.126519,-0.021562 3.544319,2.2217996 2.63641,4.171549 -0.572938,1.2303969 -2.143126,1.9742759 -3.374083,1.5984779 z"
     id="path462" />
  <path
     style="fill:#5599ff;stroke-width:0.110169"
     d="m 1.7572389,24.192429 c 0.061847,-0.115561 1.1125395,-1.78876 2.3348724,-3.71822 2.619434,-4.134791 3.6197531,-5.74328 3.6197531,-5.820476 0,-0.138786 -0.5125832,-0.02736 -1.5036251,0.326849 C 5.6186753,15.1913 5.1266289,15.352423 5.1148028,15.338633 5.0276124,15.236961 8.2455077,9.7753029 9.6407909,7.6567796 12.576736,3.1989971 14.315034,1.5440282 16.702739,0.93335587 c 1.025292,-0.26222525 1.76191,-0.27373744 2.870008,-0.0448536 2.526721,0.52190833 4.496252,2.28139653 5.285145,4.72150333 0.232204,0.718226 0.289064,1.1132521 0.294616,2.046774 0.02343,3.9400184 -2.214036,6.0567044 -12.869673,12.1749474 -2.7864414,1.599917 -3.685329,2.077925 -3.7624582,2.000797 -0.028014,-0.02801 0.2030708,-0.557099 0.5135215,-1.175744 0.3104507,-0.618646 0.5392135,-1.150052 0.5083617,-1.180904 -0.07444,-0.07444 -0.3219297,0.07937 -4.3274173,2.689386 -1.8884044,1.230504 -3.4641952,2.23728 -3.5017576,2.23728 -0.037562,0 -0.017693,-0.09455 0.044154,-0.210113 z m 7.7289489,-6.986001 c 0.8722152,-0.564642 2.3914602,-1.554393 3.3761002,-2.199445 0.98464,-0.645052 1.790254,-1.153046 1.790254,-1.128875 0,0.02417 -0.377398,0.768726 -0.838664,1.654566 -0.461265,0.88584 -0.808508,1.640774 -0.771652,1.677632 0.140068,0.140068 1.930405,-0.892401 4.639977,-2.675828 3.885194,-2.557214 5.147413,-3.81934 5.615019,-5.614601 C 23.614546,7.7015845 23.44619,6.3293005 22.843562,5.2220752 22.515587,4.6194766 21.48846,3.5584637 20.863985,3.1771913 19.814404,2.5363695 18.213406,2.310661 17.003163,2.6328926 15.157844,3.1242155 13.89571,4.4056691 11.132697,8.5932203 9.7211043,10.732594 9.0865268,11.822403 9.191357,11.927232 c 0.039942,0.03994 0.6901339,-0.13179 1.44487,-0.381629 0.754736,-0.249839 1.372248,-0.429717 1.372248,-0.399729 0,0.02999 -0.661353,1.103926 -1.469673,2.386528 -1.8487842,2.933562 -2.8269376,4.534959 -2.8269376,4.628161 0,0.165561 0.2640106,0.02359 1.7743234,-0.954135 z"
     id="path608" />
  <path
     style="fill:#4caf50;stroke-width:0.110169;fill-opacity:1"
     d="M 17.100488,10.237197 C 16.095646,9.7364629 15.53706,8.831836 15.541153,7.7118644 c 0.0043,-1.1653588 0.472123,-2.0046725 1.398548,-2.5088962 1.951929,-1.0623728 4.258931,0.2873415 4.252008,2.4876429 -0.0066,2.0986305 -2.222402,3.4778579 -4.091221,2.5465859 z"
     id="path2517" />
  <path
     style="fill:#51a0dc;fill-opacity:1;stroke-width:0.110169"
     d="m 1.9797278,23.968073 c 0.063029,-0.117771 1.3062888,-2.107361 2.7627989,-4.421311 2.4998058,-3.971428 2.9693377,-4.744471 2.9693377,-4.888749 0,-0.142546 -0.57587,-0.03813 -1.4855655,0.26937 -0.5368281,0.18146 -0.98961,0.316368 -1.0061822,0.299796 -0.04378,-0.04378 2.0158828,-3.595091 3.2400169,-5.5865 4.0469534,-6.5835436 6.2480484,-8.6317661 9.4431074,-8.78725415 1.341785,-0.0652982 2.13349,0.10853299 3.463243,0.76040955 2.130016,1.0441845 3.571744,3.2395769 3.715219,5.657352 0.203485,3.4290236 -1.5097,5.5597606 -7.509669,9.3399856 -2.797908,1.762795 -8.8269475,5.225722 -8.9258749,5.126794 -0.024474,-0.02447 0.18249,-0.528102 0.4599191,-1.119176 0.2774293,-0.591074 0.4723098,-1.106786 0.4330678,-1.146028 -0.094498,-0.0945 -0.2314925,-0.01141 -4.1653034,2.526141 -1.8615476,1.200815 -3.4125503,2.1833 -3.4466727,2.1833 -0.034123,0 -0.010471,-0.09636 0.052558,-0.21413 z M 8.6914846,17.77383 c 0.4004038,-0.25257 1.7873904,-1.148759 3.0821924,-1.991528 1.294802,-0.84277 2.426427,-1.560031 2.514723,-1.593914 0.09314,-0.03574 -0.114311,0.488113 -0.494182,1.247886 -0.360096,0.720219 -0.691591,1.427786 -0.736654,1.572372 -0.07628,0.244746 -0.06035,0.257465 0.230932,0.184359 0.636085,-0.159648 4.954151,-2.8738 6.796468,-4.271971 2.538908,-1.926827 3.381138,-3.238135 3.381138,-5.2642544 0,-1.6487182 -0.712703,-3.0657956 -2.085501,-4.1466291 -0.989171,-0.778796 -1.591859,-0.9643665 -3.15289,-0.9707901 -1.312834,-0.0054 -1.336367,-0.00101 -2.148305,0.4008452 -1.381539,0.6837713 -2.588918,2.0331662 -4.811637,5.377591 -1.3517145,2.0338654 -2.1237012,3.3077094 -2.1237012,3.5042894 0,0.198919 0.2501904,0.16267 1.4500082,-0.210084 0.60437,-0.187764 1.125168,-0.315075 1.157329,-0.282914 0.03216,0.03216 -0.846609,1.511704 -1.9528213,3.287873 -1.1062125,1.776169 -2.0340481,3.316403 -2.0618566,3.422743 -0.078634,0.300697 0.1634305,0.233289 0.9547575,-0.265874 z"
     id="path22264" />
  <path
     style="fill:#9e00d3;fill-opacity:1;stroke-width:0.110169"
     d="m 17.76125,10.403302 c -1.412425,-0.340634 -2.308736,-1.6330533 -2.137171,-3.0816559 0.165953,-1.4012089 1.304285,-2.4124713 2.719141,-2.415608 1.081854,-0.0024 2.188684,0.7290863 2.602765,1.7201229 0.216929,0.519183 0.188592,1.6543547 -0.05466,2.1898432 -0.525831,1.1575349 -1.939504,1.8744258 -3.130072,1.5872978 z"
     id="path51840" />
</svg>
