<?xml version="1.0" encoding="UTF-8" standalone="no"?>
<svg
   viewBox="0 0 26 26"
   enable-background="new 0 0 26 26"
   version="1.1"
   id="svg12"
   sodipodi:docname="CometBlue.svg"
   inkscape:version="1.2.2 (732a01da63, 2022-12-09)"
   xmlns:inkscape="http://www.inkscape.org/namespaces/inkscape"
   xmlns:sodipodi="http://sodipodi.sourceforge.net/DTD/sodipodi-0.dtd"
   xmlns="http://www.w3.org/2000/svg"
   xmlns:svg="http://www.w3.org/2000/svg">
  <sodipodi:namedview
     id="namedview7"
     pagecolor="#ffffff"
     bordercolor="#000000"
     borderopacity="0.25"
     inkscape:showpageshadow="2"
     inkscape:pageopacity="0.0"
     inkscape:pagecheckerboard="0"
     inkscape:deskcolor="#d1d1d1"
     showgrid="false"
     inkscape:zoom="9.0769231"
     inkscape:cx="13.110169"
     inkscape:cy="12.394068"
     inkscape:window-width="2256"
     inkscape:window-height="1410"
     inkscape:window-x="-11"
     inkscape:window-y="-11"
     inkscape:window-maximized="1"
     inkscape:current-layer="svg12" />
  <defs
     id="defs16" />
  <path
     d="M 25.34375 0.59375 L 21.4375 3.15625 L 16.8125 6.21875 L 18.375 3.3125 L 15.4375 4.90625 C 15.4375 4.90625 13.053934 6.2050341 10.34375 7.84375 C 7.633566 9.4824659 4.6356734 11.400968 3.09375 13 C 0.32055475 15.773195 0.32055475 20.226805 3.09375 23 C 5.8669452 25.773195 10.320555 25.773195 13.09375 23 C 14.636855 21.456895 16.397579 18.86773 17.8125 16.59375 C 19.227421 14.31977 20.28125 12.375 20.28125 12.375 L 21.5625 10.0625 L 19.0625 10.96875 L 18.6875 11.09375 L 22.84375 4.53125 L 25.34375 0.59375 z M 18.65625 7.40625 L 15.46875 12.46875 L 13.90625 14.90625 L 16.625 13.9375 L 17.15625 13.75 C 16.742642 14.459353 16.693315 14.567664 16.09375 15.53125 C 14.708671 17.75727 12.944395 20.336855 11.6875 21.59375 C 9.6606952 23.620555 6.5268048 23.620555 4.5 21.59375 C 2.4731952 19.566945 2.4731952 16.433055 4.5 14.40625 L 4.53125 14.40625 C 5.6893266 13.205282 8.710184 11.173784 11.375 9.5625 C 12.422652 8.929036 12.52043 8.9081853 13.34375 8.4375 L 13.125 8.8125 L 11.21875 12.34375 L 14.5625 10.125 L 18.65625 7.40625 z M 8 15 C 6.3 15 5 16.3 5 18 C 5 19.7 6.3 21 8 21 C 9.7 21 11 19.7 11 18 C 11 16.3 9.7 15 8 15 z"
     id="path10" />
  <path
     style="fill:#0000ff;stroke-width:0.0389508"
     d="M 7.3811761,20.919876 C 6.3048091,20.671583 5.5290919,19.978976 5.1744341,18.949563 5.054467,18.601352 5.0468823,18.547372 5.0458189,18.034219 c -0.00134,-0.647868 0.050208,-0.879522 0.3163759,-1.421704 0.1534701,-0.312617 0.2365647,-0.424751 0.5355323,-0.722687 0.2979975,-0.296968 0.4123055,-0.381221 0.7239084,-0.533571 0.6441533,-0.31494 1.2315924,-0.403192 1.9034641,-0.285958 1.1754738,0.205106 2.0609754,1.023286 2.3646834,2.184904 0.05086,0.194547 0.0712,0.412135 0.07097,0.759541 -3.9e-4,0.582872 -0.05908,0.835024 -0.317352,1.363278 -0.152349,0.311603 -0.236602,0.425911 -0.533571,0.723908 -0.2981317,0.299165 -0.4098633,0.381932 -0.7226869,0.535344 -0.2035179,0.09981 -0.4751997,0.209427 -0.6037373,0.243598 -0.3229017,0.08584 -1.1048852,0.107594 -1.4022287,0.039 z"
     id="path260" />
  <path
     style="fill:#0044aa;stroke-width:0.0389508"
     d="M 7.3811761,25.02197 C 4.5457377,24.72618 2.1065024,22.685579 1.3191513,19.950638 1.0982007,19.183145 1.0710324,18.965569 1.0725554,17.975793 c 0.0016,-1.039237 0.047208,-1.340078 0.3336348,-2.20072 0.5412073,-1.626192 1.492839,-2.783024 3.6184627,-4.398712 1.8818867,-1.4304229 5.4768091,-3.6780093 9.4455681,-5.9054773 1.072435,-0.6019047 3.775192,-2.0592326 3.790555,-2.0438694 0.0089,0.00888 -0.319659,0.6414519 -0.730084,1.4057175 -0.410426,0.7642652 -0.740246,1.3955564 -0.732934,1.4028686 0.0073,0.00731 1.002768,-0.6421343 2.212123,-1.443215 2.73294,-1.8103075 6.179417,-4.07179565 6.205363,-4.07179565 0.01069,0 -0.306289,0.51268985 -0.704404,1.13931085 -1.561211,2.4573031 -5.714658,9.0146064 -5.788519,9.1386944 l -0.07817,0.131322 0.09428,-0.02848 c 0.05185,-0.01566 0.677643,-0.239248 1.390645,-0.496857 0.713001,-0.257609 1.306477,-0.45827 1.318835,-0.445912 0.02441,0.02441 -1.384711,2.583045 -2.149272,3.902566 -2.771587,4.783351 -5.356843,8.347731 -6.903705,9.518372 -1.481212,1.120959 -3.241195,1.627271 -5.0137589,1.44236 z m 1.5626674,-1.964877 c 0.696628,-0.121242 1.3754115,-0.399998 2.0158045,-0.827829 0.890096,-0.594651 2.184719,-2.174884 3.94741,-4.818258 0.932027,-1.39769 2.302219,-3.622907 2.258036,-3.667091 -0.0089,-0.0089 -0.724121,0.236259 -1.589275,0.544902 -0.865154,0.308644 -1.57786,0.557048 -1.583792,0.552011 -0.0059,-0.005 0.264091,-0.43666 0.600051,-0.959162 1.181196,-1.837058 4.067474,-6.4356512 4.056738,-6.4634399 -0.006,-0.015459 -1.646895,1.0579671 -3.646494,2.3853908 -1.999599,1.3274231 -3.643364,2.4057671 -3.652811,2.3963191 -0.01418,-0.01418 1.39421,-2.6518293 1.885188,-3.5305897 0.116501,-0.2085145 0.127287,-0.2455528 0.0645,-0.221482 -0.178479,0.068421 -1.722507,0.9607635 -2.575565,1.4885012 -3.7895105,2.3443525 -6.1886041,4.1710265 -6.9010138,5.2544455 -0.8175428,1.243303 -1.0616557,2.701943 -0.686681,4.103101 0.5099173,1.905396 2.1487103,3.41237 4.0894377,3.760499 0.4248593,0.07621 1.288247,0.07756 1.7184706,0.0027 z"
     id="path331" />
  <path
     style="fill:#87aade;stroke-width:0.110169"
     d="M 6.3898305,24.779754 C 6.0565678,24.69223 5.4120763,24.440473 4.9576271,24.220296 3.8091081,23.663845 2.4224131,22.268717 1.839528,21.083235 0.60668031,18.575845 0.95861601,15.705438 2.7673057,13.516226 4.3685731,11.578076 9.4454596,8.254796 17.324153,3.9874576 c 0.409004,-0.221529 0.743644,-0.3751508 0.743644,-0.3413816 0,0.033769 -0.306189,0.636401 -0.68042,1.339182 -0.521971,0.9802265 -0.631006,1.2588992 -0.468221,1.1966897 0.116711,-0.044602 1.912626,-1.1993338 3.990925,-2.5660716 2.0783,-1.3667378 3.807791,-2.4559136 3.843314,-2.4203906 0.03552,0.035523 -0.0082,0.1776811 -0.09723,0.3159068 -1.978256,3.0725071 -6.048541,9.5863477 -6.012631,9.6222577 0.02666,0.02666 0.608777,-0.151393 1.293587,-0.395678 0.68481,-0.244286 1.268179,-0.421088 1.296373,-0.392893 0.06015,0.06015 -1.870162,3.527249 -2.98089,5.354074 -1.082773,1.780849 -3.019433,4.630275 -3.856242,5.673728 -1.550997,1.934005 -2.997703,2.998099 -4.6419691,3.414302 -0.8225967,0.208219 -2.5580413,0.204387 -3.3645654,-0.0074 z m 2.6565731,-1.699827 c 1.9289014,-0.359991 3.2771604,-1.675414 6.0970614,-5.948571 1.356858,-2.056123 2.093704,-3.291079 2.012249,-3.372534 -0.03309,-0.03309 -0.708993,0.165557 -1.502006,0.441439 -0.793015,0.275882 -1.441844,0.476641 -1.441844,0.446131 0,-0.03051 0.760606,-1.256228 1.690234,-2.723815 2.535811,-4.0032358 2.826362,-4.4861363 2.699215,-4.4861363 -0.06417,0 -1.626231,0.996945 -3.471244,2.2154334 -1.845013,1.2184879 -3.383092,2.1869109 -3.417953,2.1520499 -0.03486,-0.03486 0.315016,-0.764706 0.777505,-1.621878 0.462488,-0.8571719 0.840887,-1.6078053 0.840887,-1.6680741 0,-0.1607744 -0.230495,-0.050238 -1.701018,0.815742 -3.1420185,1.8503111 -6.3703966,4.1600901 -7.4249241,5.3122441 -1.856922,2.028834 -1.6479872,5.281561 0.4617563,7.188691 1.2037414,1.088136 2.8015894,1.543872 4.3800814,1.249278 z"
     id="path128" />
  <path
     style="fill:#3771c8;stroke-width:0.110169"
     d="M 6.7754237,20.617906 C 5.3046841,19.931568 4.6659121,18.126287 5.3909401,16.705115 5.6716879,16.154803 6.4745228,15.431522 7.005032,15.250964 c 1.504863,-0.512178 3.238365,0.303232 3.733419,1.756135 0.367175,1.0776 0.11374,2.187384 -0.691513,3.028114 -0.8247038,0.861038 -2.1639174,1.099567 -3.2715143,0.582693 z"
     id="path613" />
  <path
     style="fill:#00aa00;stroke-width:0.110169"
     d="M 7.2396207,20.721689 C 6.5800247,20.542746 5.9905903,20.074433 5.5663473,19.392253 5.3065599,18.974517 5.229819,18.709404 5.1961364,18.113306 c -0.053347,-0.944109 0.2069801,-1.53894 0.9761829,-2.23052 0.9234279,-0.830241 2.0719,-0.947937 3.2092928,-0.32889 0.9317809,0.507139 1.4157629,1.338146 1.4139219,2.427735 -0.0032,1.873198 -1.7603117,3.227192 -3.5559133,2.740058 z"
     id="path187" />
  <path
     style="fill:#00aad4;stroke-width:0.110169"
     d="M 6.1663762,24.636437 C 5.0337852,24.273935 4.1715492,23.731273 3.2339438,22.790866 1.8412989,21.394059 1.2118644,19.906712 1.2118644,18.012712 c 0,-1.586756 0.5454357,-3.109101 1.5836357,-4.420026 0.9874707,-1.246868 4.118006,-3.506673 8.3341259,-6.016064 2.525215,-1.5029819 6.633696,-3.7864632 6.697635,-3.7225248 0.02608,0.026077 -0.181804,0.4912197 -0.461958,1.0336496 -0.514427,0.9960254 -0.629881,1.4066474 -0.36716,1.3058317 0.07822,-0.030014 1.756976,-1.1001418 3.730577,-2.3780613 1.973602,-1.2779194 3.673071,-2.355994 3.776598,-2.3957212 0.109288,-0.041938 -0.19237,0.5230738 -0.71927,1.3472066 -1.080326,1.6897573 -4.178471,6.6387981 -4.772024,7.6229324 -0.230551,0.382261 -0.391938,0.722263 -0.358641,0.755561 0.0333,0.0333 0.592876,-0.117717 1.243507,-0.33559 0.65063,-0.217872 1.197189,-0.381906 1.214575,-0.36452 0.0428,0.0428 -1.680201,3.147076 -2.579735,4.647834 -0.868893,1.449636 -2.90145,4.522417 -3.753012,5.673729 -0.82822,1.119753 -2.468639,2.724697 -3.264248,3.193653 -1.158405,0.682799 -1.9195733,0.877343 -3.4190124,0.87385 -0.9546396,-0.0022 -1.4912887,-0.05725 -1.9310814,-0.198015 z m 3.3157465,-1.623166 c 0.9388843,-0.278357 1.3720313,-0.54442 2.2609483,-1.388806 0.986041,-0.936642 1.937928,-2.18717 3.671655,-4.823585 1.423289,-2.164343 1.8588,-2.924246 1.742552,-3.040496 -0.0427,-0.0427 -0.653279,0.106892 -1.356841,0.332426 -0.703561,0.225534 -1.302408,0.386858 -1.330769,0.358497 -0.02836,-0.02836 0.78507,-1.382821 1.807624,-3.009911 1.022554,-1.62709 1.967676,-3.1377138 2.10027,-3.3569421 0.249116,-0.4118801 0.305269,-0.6480132 0.154099,-0.6480132 -0.04784,0 -1.544244,0.9410972 -3.32534,2.0913271 -1.781095,1.1502302 -3.257024,2.0726592 -3.279841,2.0498422 -0.02282,-0.02282 0.283756,-0.690536 0.681273,-1.483822 0.397515,-0.7932849 0.722755,-1.4926208 0.722755,-1.5540793 0,-0.2337773 -0.341434,-0.084008 -1.827533,0.8016405 -3.5475725,2.1141958 -6.8581648,4.5664488 -7.6413784,5.6601938 -1.3645812,1.905615 -1.2863139,4.285928 0.2059133,6.26237 1.1648571,1.542841 3.5318184,2.307561 5.4146128,1.749358 z"
     id="path336" />
</svg>
