<?xml version="1.0" encoding="UTF-8" standalone="no"?>
<svg
   viewBox="0 0 26 26"
   enable-background="new 0 0 26 26"
   version="1.1"
   id="svg12"
   sodipodi:docname="CometBlue - Copy.svg"
   inkscape:version="1.2.2 (732a01da63, 2022-12-09)"
   xmlns:inkscape="http://www.inkscape.org/namespaces/inkscape"
   xmlns:sodipodi="http://sodipodi.sourceforge.net/DTD/sodipodi-0.dtd"
   xmlns="http://www.w3.org/2000/svg"
   xmlns:svg="http://www.w3.org/2000/svg">
  <sodipodi:namedview
     id="namedview7"
     pagecolor="#ffffff"
     bordercolor="#000000"
     borderopacity="0.25"
     inkscape:showpageshadow="2"
     inkscape:pageopacity="0.0"
     inkscape:pagecheckerboard="0"
     inkscape:deskcolor="#d1d1d1"
     showgrid="false"
     inkscape:zoom="9.0769231"
     inkscape:cx="13.220339"
     inkscape:cy="12.173729"
     inkscape:window-width="2256"
     inkscape:window-height="1410"
     inkscape:window-x="-11"
     inkscape:window-y="-11"
     inkscape:window-maximized="1"
     inkscape:current-layer="svg12" />
  <defs
     id="defs16" />
  <path
     d="m 1.0138538,25.079896 3.90625,-2.5625 4.625,-3.0625 -1.5625,2.90625 2.9375002,-1.59375 c 0,0 2.383566,-1.298784 5.09375,-2.9375 2.710183,-1.638716 5.708076,-3.557218 7.249999,-5.15625 2.773196,-2.7731949 2.773196,-7.226805 0,-10 -2.773195,-2.77319497 -7.226805,-2.77319497 -9.999999,0 -1.543105,1.543105 -3.3038292,4.13227 -4.7187502,6.40625 -1.414921,2.27398 -2.46875,4.21875 -2.46875,4.21875 l -1.28125,2.3125 2.5,-0.90625 0.375,-0.125 -4.15625,6.5625 z m 6.6875,-6.8125 3.1875002,-5.0625 1.5625,-2.4375 -2.7187502,0.96875 -0.53125,0.1875 c 0.413608,-0.709353 0.462935,-0.817664 1.0625002,-1.78125 1.385079,-2.22602 3.149355,-4.805605 4.40625,-6.0625 2.026804,-2.026805 5.160695,-2.026805 7.187499,0 2.026805,2.026805 2.026805,5.160695 0,7.1875 h -0.03125 c -1.158076,1.200968 -4.178934,3.232466 -6.843749,4.84375 -1.047652,0.633464 -1.14543,0.654315 -1.96875,1.125 l 0.21875,-0.375 1.90625,-3.53125 -3.34375,2.21875 z m 10.6562492,-7.59375 c 1.7,0 3,-1.3 3,-3 0,-1.7 -1.3,-3 -3,-3 -1.7,0 -2.999999,1.3 -2.999999,3 0,1.7 1.299999,3 2.999999,3 z"
     id="path10" />
  <path
     style="fill:#0066ff;stroke-width:0.110169"
     d="m 1.5835706,24.314371 c 0.1453655,-0.230274 1.5620084,-2.465223 3.1480955,-4.966553 1.586087,-2.501331 2.9109781,-4.618713 2.9442026,-4.705294 0.051838,-0.135088 -1.18877,0.249938 -2.5382614,0.787755 -0.2461249,0.09809 -0.3352638,0.282431 1.1219022,-2.32011 2.8136596,-5.0252758 5.4185885,-8.8070592 7.2470965,-10.521186 1.57007,-1.4718559 3.521966,-2.1204628 5.598721,-1.86043127 3.524511,0.44130577 6.163634,3.44199217 6.14187,6.98331267 -0.02017,3.2825666 -1.700585,5.3012976 -7.405414,8.8963556 -3.178157,2.002805 -9.4232264,5.563161 -9.5448207,5.441567 -0.027832,-0.02783 0.2527966,-0.606525 0.6236188,-1.285985 0.3708222,-0.679461 0.6489242,-1.260681 0.6180046,-1.2916 -0.03092,-0.03092 -1.8665564,1.140122 -4.0791926,2.602316 -2.2126363,1.462192 -4.0493334,2.658533 -4.0815492,2.658533 -0.032216,0 0.060361,-0.188407 0.2057267,-0.41868 z M 14.843478,13.649976 c 0.01619,0.01619 -0.393492,0.812863 -0.91041,1.77038 -0.516917,0.957518 -0.914868,1.765923 -0.884335,1.796457 0.131,0.130998 4.278162,-2.430029 6.441867,-3.978092 1.829575,-1.309004 2.892382,-2.344576 3.35474,-3.268773 C 23.871675,7.9184226 23.507673,5.6948989 21.878845,4.0660703 20.659939,2.8471643 19.090754,2.313973 17.497015,2.5771735 15.888739,2.8427746 14.822642,3.6158088 13.239374,5.6644158 11.901163,7.3959406 9.0620392,11.797915 9.1966534,11.932529 c 0.027482,0.02748 0.6900632,-0.179674 1.4724016,-0.460348 0.782338,-0.280674 1.459033,-0.510317 1.503766,-0.510317 0.04473,0 -0.0091,0.136335 -0.11971,0.302966 -0.886053,1.335249 -4.3412466,6.87835 -4.3412466,6.964579 0,0.06009 1.5979891,-0.952325 3.5510866,-2.24981 1.953098,-1.297485 3.564336,-2.345816 3.580527,-2.329623 z"
     id="path308" />
  <path
     style="fill:#00ff00;stroke-width:0.110169"
     d="m 17.627119,10.528333 c -1.454784,-0.444128 -2.304297,-1.6555434 -2.173385,-3.0992674 0.142707,-1.5737959 1.320793,-2.6546353 2.911058,-2.6707595 2.126519,-0.021562 3.544319,2.2217996 2.63641,4.171549 -0.572938,1.2303969 -2.143126,1.9742759 -3.374083,1.5984779 z"
     id="path310" />
</svg>
